<svg 
  xmlns="http://www.w3.org/2000/svg"
  height="32"
  viewBox="0 0 182 129"
  fill="none">
  <path d="M140.107 73.1278C131.786 73.1278 123.989 69.6045 116.905 63.8699L118.63 55.7738L118.705 55.4739C120.241 46.8532 125.114 32.3852 140.107 32.3852C151.351 32.3852 160.497 41.5308 160.497 52.7753C160.459 63.9823 151.314 73.1278 140.107 73.1278ZM140.107 11.7328C120.953 11.7328 106.111 24.1767 100.076 44.6417C90.8557 30.811 83.8841 14.2066 79.7986 0.225922H59.1836V53.8622C59.1836 64.4321 50.5628 73.0529 39.993 73.0529C29.4232 73.0529 20.8024 64.4321 20.8024 53.8622V0.225922H0.18743V53.8622C0.112466 75.8265 17.9912 93.8552 39.9555 93.8552C61.9198 93.8552 79.7986 75.8265 79.7986 53.8622V44.8666C83.8091 53.225 88.7192 61.6584 94.6788 69.1548L82.0475 128.526H103.15L112.295 85.4593C120.316 90.5943 129.537 93.8177 140.107 93.8177C162.708 93.8177 181.112 75.3018 181.112 52.7003C181.112 30.1363 162.708 11.7328 140.107 11.7328Z"
  fill="currentColor"/>
</svg>