<svg 
  preserveAspectRatio="xMinYMin slice"
  width="1290"
  height="560"
  viewBox="0 0 1290 560"
  fill="none"
  xmlns="http://www.w3.org/2000/svg">
  <g id="background">
    <path
      id="moon7"
      class="rellax"
      data-rellax-speed="7"
      d="M658.45 52.12C659.284 57.9205 661.252 63.4999 664.242 68.5397C667.232 73.5796 671.186 77.9811 675.877 81.493C680.568 85.0049 685.905 87.5584 691.583 89.0078C697.262 90.4571 703.169 90.7739 708.97 89.94C714.77 89.1061 720.35 87.1379 725.39 84.1477C730.43 81.1575 734.831 77.204 738.343 72.5128C741.855 67.8215 744.408 62.4845 745.858 56.8065C747.307 51.1284 747.624 45.2205 746.79 39.42L658.45 52.12Z"
      stroke="#18EC59"
      stroke-opacity="0.5"/>
    <path
      id="moon11"
      class="rellax"
      data-rellax-speed="2"
      d="M1225.46 49.58C1229.22 44.1006 1231.87 37.9339 1233.25 31.4321C1234.62 24.9302 1234.71 18.2205 1233.49 11.686C1232.28 5.15157 1229.79 -1.07967 1226.17 -6.65192C1222.54 -12.2242 1217.86 -17.0283 1212.38 -20.79C1206.9 -24.5517 1200.73 -27.1974 1194.23 -28.5759C1187.73 -29.9543 1181.02 -30.0387 1174.49 -28.8241C1167.95 -27.6095 1161.72 -25.1198 1156.15 -21.497C1150.58 -17.8742 1145.77 -13.1894 1142.01 -7.71001L1225.46 49.58Z"
      stroke="#18EC59"
      stroke-opacity="0.5"/>
    <path
      id="square3"
      class="rellax"
      data-rellax-speed="2"
      d="M338.02 465.38H358.37V485.73H338.02V465.38Z"
      stroke="#18EC59"
      stroke-opacity="0.5"/>
    <path
      id="moon4"
      class="rellax"
      data-rellax-speed="2"
      d="M401.4 32.23C405.082 29.9306 408.274 26.9285 410.796 23.3952C413.317 19.8619 415.118 15.8665 416.095 11.6373C417.073 7.40805 417.207 3.02772 416.492 -1.2536C415.776 -5.53492 414.224 -9.63339 411.925 -13.315C409.626 -16.9966 406.624 -20.1893 403.09 -22.7107C399.557 -25.2321 395.562 -27.0328 391.332 -28.0102C387.103 -28.9875 382.723 -29.1223 378.441 -28.4068C374.16 -27.6912 370.062 -26.1394 366.38 -23.84L401.4 32.23Z"
      fill="#18EC59"
      fill-opacity="0.5"/>
    <path 
      id="square5"
      class="rellax"
      data-rellax-speed="2"
      d="M849 138H869.35V158.35H849V138Z"
      fill="#18EC59"
      fill-opacity="0.5"/>
    <path
      id="rectangle2"
      class="rellax"
      data-rellax-speed="2"
      d="M692 426H742.08V428.2H692V426Z"
      stroke="#18EC59"
      stroke-opacity="0.5"/>
    <path
      id="moon6"
      class="rellax"
      data-rellax-speed="2"
      d="M622.93 38.87C622.666 37.0847 622.049 35.3697 621.117 33.8245C620.185 32.2793 618.955 30.9346 617.499 29.8685C616.042 28.8024 614.389 28.0361 612.634 27.6141C610.88 27.1921 609.059 27.1228 607.277 27.4101C605.495 27.6975 603.788 28.3358 602.255 29.2881C600.722 30.2403 599.393 31.4875 598.346 32.9574C597.299 34.4272 596.554 36.0904 596.155 37.8504C595.756 39.6104 595.71 41.4321 596.02 43.21L622.93 38.87Z"
      fill="#18EC59"
      fill-opacity="0.5"/>
    <path
      id="moon5"
      class="rellax"
      data-rellax-speed="2"
      d="M462.1 254.31C465.882 252.963 469.362 250.885 472.341 248.193C475.32 245.502 477.739 242.25 479.461 238.623C481.183 234.997 482.174 231.066 482.377 227.057C482.58 223.047 481.992 219.037 480.645 215.255C479.298 211.473 477.22 207.993 474.528 205.014C471.837 202.035 468.585 199.616 464.958 197.894C461.332 196.172 457.401 195.181 453.392 194.978C449.382 194.775 445.372 195.363 441.59 196.71L462.1 254.31Z"
      stroke="#18EC59"
      stroke-opacity="0.5"/>
    <path
      id="moon10"
      class="rellax"
      data-rellax-speed="2"
      d="M1063.89 49.63C1057.95 53.4675 1052.82 58.4417 1048.81 64.2667C1044.79 70.0917 1041.97 76.6525 1040.5 83.572C1039.03 90.4916 1038.95 97.6333 1040.24 104.587C1041.54 111.54 1044.21 118.168 1048.08 124.09C1051.95 130.011 1056.95 135.11 1062.79 139.092C1068.64 143.074 1075.22 145.861 1082.14 147.293C1089.07 148.725 1096.21 148.774 1103.16 147.436C1110.11 146.099 1116.72 143.402 1122.62 139.5L1063.89 49.63Z"
      fill="#18EC59"
      fill-opacity="0.5"/>
    <path
      id="moon8"
      class="rellax"
      data-rellax-speed="2"
      d="M785.5 75.01C784.352 78.0414 784.455 81.4049 785.786 84.3605C787.118 87.316 789.569 89.6216 792.6 90.77C795.631 91.9184 798.995 91.8155 801.95 90.484C804.906 89.1525 807.212 86.7014 808.36 83.67L785.5 75.01Z"
      stroke="#18EC59"
      stroke-opacity="0.5"/>
    <path
      id="circle2"
      class="rellax"
      data-rellax-speed="2"
      d="M52 90.43C52 96.6586 53.2268 102.826 55.6104 108.581C57.994 114.335 61.4876 119.564 65.8919 123.968C70.2962 128.372 75.5249 131.866 81.2793 134.25C87.0338 136.633 93.2014 137.86 99.43 137.86C105.659 137.86 111.826 136.633 117.581 134.25C123.335 131.866 128.564 128.372 132.968 123.968C137.372 119.564 140.866 114.335 143.25 108.581C145.633 102.826 146.86 96.6586 146.86 90.43C146.86 77.8508 141.863 65.7868 132.968 56.8919C124.073 47.9971 112.009 43 99.43 43C86.8508 43 74.7868 47.9971 65.8919 56.8919C56.9971 65.7868 52 77.8508 52 90.43V90.43Z"
      stroke="#18EC59"
      stroke-opacity="0.5"/>
    <path
      id="square4"
      class="rellax"
      data-rellax-speed="2"
      d="M534.49 119.69H578.57V163.77H534.49V119.69Z"
      stroke="#18EC59"
      stroke-opacity="0.5"/>
    <path
      id="circle4"
      class="rellax"
      data-rellax-speed="2"
      d="M799.09 396.6C799.09 407.866 803.566 418.671 811.532 426.638C819.499 434.604 830.304 439.08 841.57 439.08C852.836 439.08 863.641 434.604 871.608 426.638C879.574 418.671 884.05 407.866 884.05 396.6C884.05 385.334 879.574 374.529 871.608 366.562C863.641 358.596 852.836 354.12 841.57 354.12C830.304 354.12 819.499 358.596 811.532 366.562C803.566 374.529 799.09 385.334 799.09 396.6V396.6Z"
      stroke="#18EC59"
      stroke-opacity="0.5"/>
    <path
      id="moon1"
      class="rellax"
      data-rellax-speed="2"
      d="M203.86 561.22C208.182 547.055 206.699 531.753 199.739 518.681C192.779 505.608 180.91 495.837 166.745 491.515C152.58 487.193 137.278 488.676 124.206 495.636C111.134 502.597 101.362 514.465 97.04 528.63L203.86 561.22Z"
      fill="#18EC59"
      fill-opacity="0.5"/>
    <path
      id="circle6"
      class="rellax"
      data-rellax-speed="2"
      d="M1045.73 31.88C1045.73 36.3834 1047.52 40.7023 1050.7 43.8867C1053.89 47.071 1058.21 48.86 1062.71 48.86C1067.21 48.86 1071.53 47.071 1074.72 43.8867C1077.9 40.7023 1079.69 36.3834 1079.69 31.88C1079.69 27.3766 1077.9 23.0577 1074.72 19.8733C1071.53 16.689 1067.21 14.9 1062.71 14.9C1058.21 14.9 1053.89 16.689 1050.7 19.8733C1047.52 23.0577 1045.73 27.3766 1045.73 31.88Z"
      fill="#18EC59"
      fill-opacity="0.5"/>
    <path
      id="rectangle4"
      class="rellax"
      data-rellax-speed="2"
      d="M1013.37 290.24H1059.38V310.36H1013.37V290.24Z"
      stroke="#18EC59"
      stroke-opacity="0.5"/>
    <path
      id="moon9"
      class="rellax"
      data-rellax-speed="3"
      d="M850.53 549.46C854.795 550.105 859.145 549.903 863.331 548.867C867.518 547.831 871.46 545.98 874.931 543.42C878.403 540.861 881.336 537.642 883.564 533.949C885.792 530.256 887.27 526.16 887.915 521.895C888.56 517.63 888.358 513.28 887.322 509.094C886.286 504.907 884.435 500.965 881.875 497.494C879.316 494.022 876.097 491.089 872.404 488.861C868.711 486.633 864.615 485.155 860.35 484.51L850.53 549.46Z" stroke="#18EC59" stroke-opacity="0.5"/>
    <path
      id="square2"
      class="rellax"
      data-rellax-speed="4"
      d="M298.15 209.66H326.25V237.76H298.15V209.66Z"
      stroke="#18EC59"
      stroke-opacity="0.5"/>
    <path
      id="circle3"
      class="rellax"
      data-rellax-speed="5"
      d="M419.89 446.74C419.89 459.55 424.979 471.835 434.037 480.893C443.095 489.951 455.38 495.04 468.19 495.04C481 495.04 493.285 489.951 502.343 480.893C511.401 471.835 516.49 459.55 516.49 446.74C516.49 433.93 511.401 421.645 502.343 412.587C493.285 403.529 481 398.44 468.19 398.44C455.38 398.44 443.095 403.529 434.037 412.587C424.979 421.645 419.89 433.93 419.89 446.74V446.74Z"
      fill="#18EC59"
      fill-opacity="0.5"/>
    <path
      id="rectangle1"
      class="rellax"
      data-rellax-speed="1"
      d="M589.79 236.57H604.33V280.81H589.79V236.57Z"
      fill="#18EC59"
      fill-opacity="0.5"/>
    <path
      id="rectangle3"
      class="rellax"
      data-rellax-speed="1"
      d="M760.32 104.41H773.48V150.12H760.32V104.41Z"
      fill="#18EC59"
      fill-opacity="0.5"/>
    <path
      id="rectangle5"
      class="rellax"
      data-rellax-speed="4"
      d="M1133.58 3.88998H1165.02V19.68H1133.58V3.88998Z"
      fill="#18EC59"
      fill-opacity="0.5"/>
    <path
      id="moon12"
      class="rellax"
      data-rellax-speed="7"
      d="M1289.7 183.88C1288.89 179.964 1287.31 176.246 1285.06 172.941C1282.81 169.636 1279.93 166.809 1276.58 164.622C1273.23 162.435 1269.48 160.932 1265.55 160.198C1261.62 159.465 1257.58 159.516 1253.67 160.348C1249.76 161.18 1246.05 162.778 1242.76 165.048C1239.47 167.319 1236.66 170.218 1234.49 173.579C1232.32 176.939 1230.84 180.696 1230.13 184.631C1229.42 188.566 1229.5 192.603 1230.35 196.51L1289.7 183.88Z"
      fill="#18EC59"
      fill-opacity="0.5"/>
    <path
      id="circle5"
      class="rellax"
      data-rellax-speed="5"
      d="M814 237.17C814 247.028 817.916 256.482 824.887 263.453C831.858 270.424 841.312 274.34 851.17 274.34C861.028 274.34 870.482 270.424 877.453 263.453C884.424 256.482 888.34 247.028 888.34 237.17C888.34 227.312 884.424 217.858 877.453 210.887C870.482 203.916 861.028 200 851.17 200C841.312 200 831.858 203.916 824.887 210.887C817.916 217.858 814 227.312 814 237.17V237.17Z"
      stroke="#18EC59"
      stroke-opacity="0.5"/>
    <path
      id="moon3"
      class="rellax"
      data-rellax-speed="1"
      d="M403.24 107.286C404.006 105.695 404.452 103.968 404.55 102.204C404.649 100.44 404.4 98.6746 403.816 97.0073C403.232 95.34 402.326 93.804 401.149 92.487C399.972 91.17 398.547 90.0977 396.955 89.3315C395.363 88.5652 393.636 88.1199 391.873 88.0211C390.109 87.9222 388.343 88.1717 386.676 88.7553C385.009 89.339 383.473 90.2453 382.156 91.4225C380.839 92.5997 379.766 94.0248 379 95.6165L403.24 107.286Z"
      stroke="#18EC59"
      stroke-opacity="0.5"/>
    <path
      id="square1"
      class="rellax"
      data-rellax-speed="5"
      d="M274.03 107.26H283.68V116.91H274.03V107.26Z"
      stroke="#18EC59"
      stroke-opacity="0.5"/>
    <path
      id="rectangle6"
      class="rellax"
      data-rellax-speed="2"
      d="M658 162H708.36V197.56H658V162Z"
      stroke="#18EC59"
      stroke-opacity="0.5"/>
    <path
      id="circle1"
      class="rellax"
      data-rellax-speed="2"
      d="M0 126.88C0 137.457 4.20163 147.6 11.6806 155.079C19.1595 162.558 29.3032 166.76 39.88 166.76C50.4568 166.76 60.6005 162.558 68.0794 155.079C75.5584 147.6 79.76 137.457 79.76 126.88C79.76 116.303 75.5584 106.16 68.0794 98.6806C60.6005 91.2016 50.4568 87 39.88 87C29.3032 87 19.1595 91.2016 11.6806 98.6806C4.20163 106.16 0 116.303 0 126.88V126.88Z"
      stroke="#18EC59"
      stroke-opacity="0.5"/>
  </g>
</svg>
