<svg
  preserveAspectRatio="xMinYMin slice"
  width="1515" height="2311" viewBox="0 0 1515 2311" fill="none" xmlns="http://www.w3.org/2000/svg">
<path
  class="rellax"
  data-rellax-speed="-3"
  d="M777 733.38C777 738.52 779.042 743.449 782.676 747.084C786.311 750.718 791.24 752.76 796.38 752.76C801.52 752.76 806.449 750.718 810.084 747.084C813.718 743.449 815.76 738.52 815.76 733.38C815.76 728.24 813.718 723.311 810.084 719.676C806.449 716.042 801.52 714 796.38 714C791.24 714 786.311 716.042 782.676 719.676C779.042 723.311 777 728.24 777 733.38Z" fill="#18EC59" fill-opacity="0.4"/>
<path
  class="rellax"
  data-rellax-speed="-2"
  d="M198 550C198 561.404 202.478 572.341 210.448 580.406C218.418 588.47 229.228 593 240.5 593C251.772 593 262.582 588.47 270.552 580.406C278.522 572.341 283 561.404 283 550C283 538.596 278.522 527.658 270.552 519.594C262.582 511.53 251.772 507 240.5 507C229.228 507 218.418 511.53 210.448 519.594C202.478 527.658 198 538.596 198 550Z" fill="#18EC59" fill-opacity="0.4"/>
<path
  class="rellax"
  data-rellax-speed="-4"
  d="M1006.09 818.91H1086.67V915.98H1006.09V818.91Z" stroke="#18EC59" stroke-opacity="0.4"/>
<path
  class="rellax"
  data-rellax-speed="-1"
  d="M432 607.24C432 629.051 440.665 649.969 456.088 665.392C471.511 680.815 492.429 689.48 514.24 689.48C536.052 689.48 556.969 680.815 572.392 665.392C587.815 649.969 596.48 629.051 596.48 607.24C596.48 585.429 587.815 564.511 572.392 549.088C556.969 533.665 536.052 525 514.24 525C492.429 525 471.511 533.665 456.088 549.088C440.665 564.511 432 585.429 432 607.24Z" stroke="#18EC59" stroke-opacity="0.4"/>
<path
  class="rellax"
  data-rellax-speed="-3"
  d="M27 103.91C27 115.29 31.5209 126.205 39.5681 134.252C47.6152 142.299 58.5295 146.82 69.91 146.82C81.2904 146.82 92.2048 142.299 100.252 134.252C108.299 126.205 112.82 115.29 112.82 103.91C112.82 92.5296 108.299 81.6152 100.252 73.5681C92.2048 65.5209 81.2904 61 69.91 61C58.5295 61 47.6152 65.5209 39.5681 73.5681C31.5209 81.6152 27 92.5296 27 103.91V103.91Z" stroke="#18EC59" stroke-opacity="0.4"/>
<path
  class="rellax"
  data-rellax-speed="-2"
  d="M391 806H513.969V928.97H391V806Z" stroke="#18EC59" stroke-opacity="0.4"/>
<path
  class="rellax"
  data-rellax-speed="-4"
  d="M287 926H335.65V974.65H287V926Z" fill="#18EC59" fill-opacity="0.4"/>
<path
  class="rellax"
  data-rellax-speed="-1"
  d="M1343.64 836.62H1473.3V983.62H1343.64V836.62Z" stroke="#18EC59" stroke-opacity="0.4"/>
<path
  class="rellax"
  data-rellax-speed="3"
  d="M747 549H793.17V595.69H747V549Z" stroke="#18EC59" stroke-opacity="0.4"/>
<path
  class="rellax"
  data-rellax-speed="3"
  d="M1226 346H1514V634H1226V346Z" stroke="#18EC59" stroke-opacity="0.4"/>
<path
  class="rellax"
  data-rellax-speed="3"
  d="M304.79 334.32C304.79 334.352 304.803 334.382 304.825 334.405C304.848 334.427 304.878 334.44 304.91 334.44C304.942 334.44 304.972 334.427 304.995 334.405C305.017 334.382 305.03 334.352 305.03 334.32C305.03 334.288 305.017 334.258 304.995 334.235C304.972 334.213 304.942 334.2 304.91 334.2C304.878 334.2 304.848 334.213 304.825 334.235C304.803 334.258 304.79 334.288 304.79 334.32Z" fill="#18EC59" fill-opacity="0.4"/>
<path
  class="rellax"
  data-rellax-speed="3"
  d="M669.996 312.361C679.775 295.612 682.5 275.664 677.571 256.906C672.642 238.148 660.464 222.116 643.714 212.337C626.965 202.558 607.017 199.834 588.259 204.762C569.501 209.691 553.469 221.87 543.69 238.619L669.996 312.361Z" stroke="#18EC59" stroke-opacity="0.4"/>
<path
  class="rellax"
  data-rellax-speed="3"
  d="M813 381C813 402.217 821.429 422.566 836.431 437.569C851.434 452.571 871.783 461 893 461C914.217 461 934.566 452.571 949.569 437.569C964.571 422.566 973 402.217 973 381C973 359.783 964.571 339.434 949.569 324.431C934.566 309.429 914.217 301 893 301C871.783 301 851.434 309.429 836.431 324.431C821.429 339.434 813 359.783 813 381V381Z" stroke="#18EC59" stroke-opacity="0.4"/>
<path
  class="rellax"
  data-rellax-speed="3"
  d="M61 68.5C61 86.4021 68.1116 103.571 80.7703 116.23C93.429 128.888 110.598 136 128.5 136C146.402 136 163.571 128.888 176.23 116.23C188.888 103.571 196 86.4021 196 68.5C196 50.5979 188.888 33.429 176.23 20.7703C163.571 8.11159 146.402 1 128.5 1C110.598 1 93.429 8.11159 80.7703 20.7703C68.1116 33.429 61 50.5979 61 68.5V68.5Z" stroke="#18EC59" stroke-opacity="0.4"/>
<path
  class="rellax"
  data-rellax-speed="3"
  d="M972 191.31C972 203.062 976.668 214.332 984.978 222.642C993.288 230.952 1004.56 235.62 1016.31 235.62C1028.06 235.62 1039.33 230.952 1047.64 222.642C1055.95 214.332 1060.62 203.062 1060.62 191.31C1060.62 179.558 1055.95 168.288 1047.64 159.978C1039.33 151.668 1028.06 147 1016.31 147C1004.56 147 993.288 151.668 984.978 159.978C976.668 168.288 972 179.558 972 191.31Z" fill="#18EC59" fill-opacity="0.4"/>
<path
  class="rellax"
  data-rellax-speed="3"
  d="M1108 132C1108 166.743 1121.8 200.064 1146.37 224.631C1170.94 249.198 1204.26 263 1239 263C1273.74 263 1307.06 249.198 1331.63 224.631C1356.2 200.064 1370 166.743 1370 132C1370 97.2566 1356.2 63.9363 1331.63 39.369C1307.06 14.8017 1273.74 1 1239 1C1204.26 1 1170.94 14.8017 1146.37 39.369C1121.8 63.9363 1108 97.2566 1108 132Z" fill="#18EC59" fill-opacity="0.4"/>
<path
  class="rellax"
  data-rellax-speed="3"
  d="M1019 406H1103V490H1019V406Z" fill="#18EC59" fill-opacity="0.4"/>
<path
  class="rellax"
  data-rellax-speed="3"
  d="M1364 1500.86C1364 1506.62 1365.13 1512.32 1367.34 1517.64C1369.54 1522.97 1372.77 1527.8 1376.85 1531.87C1380.92 1535.95 1385.75 1539.18 1391.08 1541.38C1396.4 1543.59 1402.1 1544.72 1407.86 1544.72C1413.62 1544.72 1419.32 1543.59 1424.64 1541.38C1429.97 1539.18 1434.8 1535.95 1438.87 1531.87C1442.95 1527.8 1446.18 1522.97 1448.38 1517.64C1450.59 1512.32 1451.72 1506.62 1451.72 1500.86C1451.72 1489.23 1447.1 1478.07 1438.87 1469.85C1430.65 1461.62 1419.49 1457 1407.86 1457C1396.23 1457 1385.07 1461.62 1376.85 1469.85C1368.62 1478.07 1364 1489.23 1364 1500.86V1500.86Z" fill="#18EC59" fill-opacity="0.4"/>
<path
  class="rellax"
  data-rellax-speed="4"
  d="M1 1251.77C1 1268.51 4.2979 1285.09 10.7054 1300.56C17.1128 1316.03 26.5044 1330.09 38.3439 1341.93C50.1834 1353.77 64.2389 1363.16 79.7079 1369.56C95.1769 1375.97 111.756 1379.27 128.5 1379.27C145.244 1379.27 161.823 1375.97 177.292 1369.56C192.761 1363.16 206.817 1353.77 218.656 1341.93C230.496 1330.09 239.887 1316.03 246.295 1300.56C252.702 1285.09 256 1268.51 256 1251.77C256 1235.03 252.702 1218.45 246.295 1202.98C239.887 1187.51 230.496 1173.45 218.656 1161.61C206.817 1149.77 192.761 1140.38 177.292 1133.98C161.823 1127.57 145.244 1124.27 128.5 1124.27C111.756 1124.27 95.1769 1127.57 79.7079 1133.98C64.2389 1140.38 50.1834 1149.77 38.3439 1161.61C26.5044 1173.45 17.1128 1187.51 10.7054 1202.98C4.2979 1218.45 1 1235.03 1 1251.77Z" stroke="#18EC59" stroke-opacity="0.4"/>
<path
  class="rellax"
  data-rellax-speed="1"
  d="M216.12 1291.11C216.12 1299.3 219.373 1307.15 225.165 1312.95C230.956 1318.74 238.81 1321.99 247 1321.99C255.19 1321.99 263.044 1318.74 268.835 1312.95C274.627 1307.15 277.88 1299.3 277.88 1291.11C277.88 1282.92 274.627 1275.07 268.835 1269.27C263.044 1263.48 255.19 1260.23 247 1260.23C238.81 1260.23 230.956 1263.48 225.165 1269.27C219.373 1275.07 216.12 1282.92 216.12 1291.11Z" stroke="#18EC59" stroke-opacity="0.4"/>
<path
  class="rellax"
  data-rellax-speed="2"
  d="M1293.77 1241.53C1293.77 1248.83 1296.67 1255.83 1301.83 1260.99C1306.99 1266.15 1313.99 1269.05 1321.29 1269.05C1328.59 1269.05 1335.59 1266.15 1340.75 1260.99C1345.91 1255.83 1348.81 1248.83 1348.81 1241.53C1348.81 1234.23 1345.91 1227.23 1340.75 1222.07C1335.59 1216.91 1328.59 1214.01 1321.29 1214.01C1313.99 1214.01 1306.99 1216.91 1301.83 1222.07C1296.67 1227.23 1293.77 1234.23 1293.77 1241.53V1241.53Z" fill="#18EC59" fill-opacity="0.4"/>
<path
  class="rellax"
  data-rellax-speed="4"
  d="M216.563 2034.38C205.29 2027.56 192.776 2023.05 179.747 2021.1C166.718 2019.15 153.43 2019.8 140.654 2023.01C127.878 2026.23 115.865 2031.94 105.312 2039.83C94.7581 2047.72 85.8725 2057.62 79.1687 2068.96C72.4649 2080.3 68.0758 2092.86 66.2554 2105.91C64.4349 2118.95 65.2191 2132.23 68.5626 2144.98C71.9062 2157.72 77.7427 2169.67 85.7348 2180.15C93.7269 2190.62 103.716 2199.41 115.124 2206L216.563 2034.38Z" stroke="#18EC59" stroke-opacity="0.4"/>
<path
  class="rellax"
  data-rellax-speed="1"
  d="M1078 2195.26C1079.54 2212 1084.37 2228.27 1092.23 2243.14C1100.08 2258 1110.8 2271.16 1123.77 2281.86C1136.74 2292.56 1151.69 2300.59 1167.78 2305.49C1183.86 2310.38 1200.75 2312.04 1217.48 2310.37C1234.21 2308.71 1250.45 2303.74 1265.25 2295.77C1280.05 2287.8 1293.13 2276.98 1303.73 2263.93C1314.33 2250.88 1322.24 2235.86 1327.01 2219.74C1331.78 2203.62 1333.31 2186.72 1331.51 2170L1078 2195.26Z" fill="#18EC59" fill-opacity="0.4"/>
<path
  class="rellax"
  data-rellax-speed="2"
  d="M70 1637H119.16V1686.16H70V1637Z" fill="#18EC59" fill-opacity="0.4"/>
<path
  class="rellax"
  data-rellax-speed="4"
  d="M1012 1287C1012 1315.11 1023.17 1342.07 1043.05 1361.95C1062.93 1381.83 1089.89 1393 1118 1393C1146.11 1393 1173.07 1381.83 1192.95 1361.95C1212.83 1342.07 1224 1315.11 1224 1287C1224 1258.89 1212.83 1231.93 1192.95 1212.05C1173.07 1192.17 1146.11 1181 1118 1181C1089.89 1181 1062.93 1192.17 1043.05 1212.05C1023.17 1231.93 1012 1258.89 1012 1287V1287Z" stroke="#18EC59" stroke-opacity="0.4"/>
<path
  class="rellax"
  data-rellax-speed="1"
  d="M508.761 1892.37H562.311V1945.92H508.761V1892.37Z" fill="#18EC59" fill-opacity="0.4"/>
<path
  class="rellax"
  data-rellax-speed="2"
  d="M889.053 1521C860.521 1537.04 839.528 1563.76 830.694 1595.27C821.86 1626.79 825.909 1660.53 841.948 1689.06C857.988 1717.59 884.705 1738.59 916.223 1747.42C947.74 1756.25 981.476 1752.21 1010.01 1736.17L889.053 1521Z" stroke="#18EC59" stroke-opacity="0.4"/>
<path
  class="rellax"
  data-rellax-speed="3"
  d="M1161 1608H1214.6V1726.07H1161V1608Z" fill="#18EC59" fill-opacity="0.4"/>
<path
  class="rellax"
  data-rellax-speed="3"
  d="M1388.64 1887.62H1505.95V2020.62H1388.64V1887.62Z" stroke="#18EC59" stroke-opacity="0.4"/>
<path
  class="rellax"
  data-rellax-speed="2"
  d="M626.141 2046.84C626.141 2074.02 636.941 2100.1 656.163 2119.32C675.385 2138.54 701.457 2149.34 728.641 2149.34C755.826 2149.34 781.897 2138.54 801.12 2119.32C820.342 2100.1 831.141 2074.02 831.141 2046.84C831.141 2019.66 820.342 1993.58 801.12 1974.36C781.897 1955.14 755.826 1944.34 728.641 1944.34C701.457 1944.34 675.385 1955.14 656.163 1974.36C636.941 1993.58 626.141 2019.66 626.141 2046.84V2046.84Z" stroke="#18EC59" stroke-opacity="0.4"/>
<path
  class="rellax"
  data-rellax-speed="1"
  d="M355.661 1851.34H437.071V1932.75H355.661V1851.34Z" stroke="#18EC59" stroke-opacity="0.4"/>
</svg>
